:SAMPLES-PER-SECOND 24
:FULLY-SPECIFIED
:DEGREES
390
root  1.87285 41.2173 33.5232 -178.539 -61.45 172.673
RightUpLeg  -10.7904 -15.6767 -15.8159
RightLeg  27.6318 8.24909 4.4464
RightFoot  14.0069 -0.985439 4.8111
RightToes  -1.74623e-010 0 -2.59999e-017
Spine  3.84294 -3.48836 -8.21577
Spine1  12.5838 -4.85033 2.43833
HEad  -12.291 -29.8646 11.9472
LeftShoulder1  1.49699 -2.73359 -17.3471
LeftArm  15.7731 7.82591 -40.6595
LeftForeArm  124.853 -75.116 -135.4
LeftHand  0.190062 8.91079 7.44467
RightShoulder  3.02495 5.29353 28.4439
RightArm  0.36852 -35.789 33.5457
RightForeArm  7.37231 40.1115 8.97293
RightHand  0.0575701 -3.94826 6.7547
LeftUpLeg  6.42945 12.5993 8.63431
LeftLeg  18.2103 3.15753 1.10601
LeftFoot  7.67401 1.4861 -9.12132
LeftToes  -6.27559e-011 -2.10356e-011 8.24929e-012
391
root  1.85325 40.2379 33.6013 -178.069 -61.6446 171.677
RightUpLeg  -9.9346 -14.3381 -16.3675
RightLeg  29.6305 5.92882 3.41417
RightFoot  7.57017 -1.03738 6.66565
RightToes  -1.74623e-010 0 -2.59999e-017
Spine  5.05089 -3.00904 -8.66698
Spine1  11.1305 -4.4634 2.0893
HEad  -12.6986 -29.9194 10.9684
LeftShoulder1  1.54686 -2.93156 -17.3865
LeftArm  12.4003 7.68365 -39.4767
LeftForeArm  123.651 -75.5356 -133.777
LeftHand  0.223697 8.91605 8.4879
RightShoulder  2.8346 5.08046 27.0305
RightArm  5.30076 -32.1451 31.4864
RightForeArm  7.20889 39.4197 8.76134
RightHand  0.079218 -3.09856 5.05908
LeftUpLeg  6.46143 11.9827 10.0266
LeftLeg  18.9974 2.01022 0.711625
LeftFoot  2.13406 1.37532 -11.9197
LeftToes  -6.27559e-011 -2.10356e-011 8.24929e-012
392
root  1.94475 38.6864 33.7905 -177.309 -62.2875 170.43
RightUpLeg  -10.6106 -15.573 -17.3105
RightLeg  34.0844 4.31963 2.89305
RightFoot  -5.03489 -0.431807 7.18893
RightToes  -1.74623e-010 0 -2.59999e-017
Spine  7.04289 -2.67201 -9.6207
Spine1  9.78368 -4.5246 2.56933
HEad  -13.9557 -29.9005 10.0803
LeftShoulder1  1.58721 -2.95154 -17.9826
LeftArm  8.89602 5.22105 -37.9574
LeftForeArm  120.611 -75.8128 -132.165
LeftHand  0.291827 8.99948 10.405
RightShoulder  2.67452 4.8649 25.9302
RightArm  8.97406 -26.019 29.2733
RightForeArm  7.06543 37.9724 8.32058
RightHand  0.039836 -3.44403 3.60201
LeftUpLeg  4.40678 13.1537 11.2141
LeftLeg  25.8363 -4.10347 -1.87134
LeftFoot  -9.01654 0.382218 -17.565
LeftToes  -6.27559e-011 -2.10356e-011 8.24929e-012
393
root  2.16029 37.1136 33.9996 -176.447 -61.4721 169.232
RightUpLeg  -14.562 -15.5017 -18.1391
RightLeg  41.7074 3.477 3.03675
RightFoot  -13.771 0.0178482 5.24458
RightToes  -1.74623e-010 0 -2.59999e-017
Spine  7.92 -1.89468 -9.80525
Spine1  10.5467 -3.63342 1.28032
HEad  -17.2193 -30.6148 11.5341
LeftShoulder1  1.60707 -2.69926 -19.406
LeftArm  6.18447 -0.607308 -35.4778
LeftForeArm  113.621 -76.8156 -126.442
LeftHand  0.49834 10.207 12.6991
RightShoulder  2.76403 4.96186 26.6496
RightArm  4.11169 -18.8062 27.6483
RightForeArm  14.1746 35.8858 7.27742
RightHand  0.025042 -3.32658 2.52438
LeftUpLeg  1.36083 15.5334 11.4579
LeftLeg  34.665 -5.62144 -3.78747
LeftFoot  -19.4344 -1.17866 -18.1654
LeftToes  -6.27559e-011 -2.10356e-011 8.24929e-012
394
root  2.31046 36.4622 34.0291 -177.097 -59.3815 169.158
RightUpLeg  -17.0614 -13.5511 -18.2534
RightLeg  46.0717 3.69622 3.79125
RightFoot  -15.2748 0.0560052 4.62013
RightToes  -1.74623e-010 0 -2.59999e-017
Spine  7.73414 -0.999444 -9.0472
Spine1  12.4655 -2.12373 -1.42692
HEad  -19.784 -31.151 14.14
LeftShoulder1  1.73177 -2.7305 -21.4016
LeftArm  4.40744 -3.49769 -34.1207
LeftForeArm  108.494 -78.263 -117.101
LeftHand  0.711576 12.2344 12.6561
RightShoulder  2.9739 5.1919 28.2547
RightArm  -10.9194 -14.7097 29.3329
RightForeArm  24.3763 35.5837 6.57519
RightHand  -0.10606 -3.77039 -6.35465
LeftUpLeg  0.86654 17.1505 11.664
LeftLeg  38.2748 -4.16158 -3.11921
LeftFoot  -22.5752 -1.57233 -17.2105
LeftToes  -6.27559e-011 -2.10356e-011 8.24929e-012
395
root  2.17326 37.314 33.8378 -179.933 -58.5623 171.415
RightUpLeg  -13.4197 -12.7452 -16.9918
RightLeg  40.7216 4.56996 3.94651
RightFoot  -12.1315 -0.0394044 6.01886
RightToes  -1.74623e-010 0 -2.59999e-017
Spine  7.25641 -1.05712 -8.00724
Spine1  13.0051 -1.97517 -1.57315
HEad  -17.6321 -31.3924 14.2506
LeftShoulder1  1.87519 -2.99204 -22.5663
LeftArm  4.18595 2.37677 -36.222
LeftForeArm  112.029 -78.8168 -114.496
LeftHand  0.731622 13.2399 11.3799
RightShoulder  3.05487 5.25719 28.9418
RightArm  -20.5361 -15.4299 33.4183
RightForeArm  24.4893 40.2972 7.92047
RightHand  -0.201517 -4.62084 -23.3584
LeftUpLeg  3.61591 15.5012 12.5834
LeftLeg  34.4618 -3.18023 -1.94625
LeftFoot  -17.6249 -0.922692 -18.9967
LeftToes  -6.27559e-011 -2.10356e-011 8.24929e-012
396
root  1.87258 39.0328 33.5343 177.925 -58.3374 174.07
RightUpLeg  -7.6438 -13.2586 -15.407
RightLeg  29.6192 6.30022 3.63656
RightFoot  -3.78414 -0.542498 7.86273
RightToes  -1.74623e-010 0 -2.59999e-017
Spine  6.10943 -1.56293 -7.77374
Spine1  11.4856 -2.68564 0.414148
HEad  -11.6652 -32.2575 12.2634
LeftShoulder1  1.88664 -2.98172 -22.8012
LeftArm  6.09396 12.5901 -39.342
LeftForeArm  115.186 -78.3872 -118.481
LeftHand  0.649944 12.5227 11.2144
RightShoulder  3.05607 5.23323 29.0545
RightArm  -16.8001 -18.9585 34.7081
RightForeArm  18.8334 47.6059 10.8859
RightHand  -0.407382 -3.75526 -29.737
LeftUpLeg  6.36875 13.5735 13.048
LeftLeg  27.1162 -0.551132 0.0513413
LeftFoot  -5.67344 1.03843 -19.7206
LeftToes  -6.27559e-011 -2.10356e-011 8.24929e-012
397
root  1.6399 40.6135 33.2938 178.338 -56.6495 174.833
RightUpLeg  -5.30454 -12.73 -14.7511
RightLeg  21.1001 9.3833 3.77149
RightFoot  7.84996 -1.70424 10.3754
RightToes  -1.74623e-010 0 -2.59999e-017
Spine  4.19089 -1.5435 -7.61791
Spine1  9.8572 -2.42018 1.00645
HEad  -7.06493 -33.2328 11.4121
LeftShoulder1  1.81077 -2.86799 -22.0883
LeftArm  8.81296 20.6944 -41.6751
LeftForeArm  112.032 -78.0785 -119.38
LeftHand  0.388344 10.8381 9.10658
RightShoulder  2.93724 5.03402 28.4634
RightArm  -10.8345 -23.4002 33.984
RightForeArm  20.0539 56.8183 15.5936
RightHand  -0.335324 -3.18148 -17.1878
LeftUpLeg  7.59084 13.4387 12.1054
LeftLeg  20.4016 4.44479 2.0818
LeftFoot  7.95263 2.58059 -15.3911
LeftToes  -6.27559e-011 -2.10356e-011 8.24929e-012
398
root  1.52343 41.5156 33.1778 179.21 -54.7945 174.826
RightUpLeg  -5.28747 -11.1227 -14.5949
RightLeg  17.0431 11.003 3.58731
RightFoot  14.4596 -2.39923 10.9142
RightToes  -1.74623e-010 0 -2.59999e-017
Spine  2.44895 -1.53332 -6.90751
Spine1  9.59254 -2.00002 0.596359
HEad  -6.27357 -33.1405 11.5815
LeftShoulder1  1.73891 -3.05106 -20.0797
LeftArm  10.253 25.4894 -44.7329
LeftForeArm  109.538 -78.4044 -116.484
LeftHand  0.113643 8.69101 5.34561
RightShoulder  2.57771 4.50423 26.1671
RightArm  -8.22978 -26.169 35.0425
RightForeArm  24.389 65.2188 22.6141
RightHand  0.0053952 -1.77828 0.808466
LeftUpLeg  7.98432 11.7013 10.4844
LeftLeg  16.5911 7.80739 2.17081
LeftFoot  12.6505 2.33836 -11.2769
LeftToes  -6.27559e-011 -2.10356e-011 8.24929e-012
